# xmcd
# 
# Track frame offsets:
#     150
#     16692
#     41920
#     58087
#     71987
# 
# Disc length: 1174
# 
# Revision: 1
# Processed by: cddbd v1.5.2PL0 Copyright (c) Steve Scherf et al.
# Submitted via: fre:ac v1.0.31
# 
DISCID=43049405
DTITLE=Gisbert Geier and Hermine Plaschke - Schnittenkönig
DYEAR=1996
DGENRE=Comedy
TTITLE0=Radio Mix
TTITLE1=Schnitten-Mix
TTITLE2=Schnitten-Solo-Mix
TTITLE3=Der Purzel-Song
TTITLE4=Gisbert Geier und die Literatur
EXTD=
EXTT0=
EXTT1=
EXTT2=
EXTT3=
EXTT4=
PLAYORDER=
